<?xml version="1.0" standalone="no"?>
<!DOCTYPE svg PUBLIC "-//W3C//DTD SVG 20010904//EN"
 "http://www.w3.org/TR/2001/REC-SVG-20010904/DTD/svg10.dtd">
<svg version="1.0" xmlns="http://www.w3.org/2000/svg"
 width="512.000000pt" height="512.000000pt" viewBox="0 0 512.000000 512.000000"
 preserveAspectRatio="xMidYMid meet">

<g transform="translate(0.000000,512.000000) scale(0.100000,-0.100000)"
fill="#000000" stroke="none">
<path d="M2038 4156 c-241 -69 -346 -357 -205 -562 103 -150 297 -203 461
-126 283 133 281 532 -3 665 -75 36 -177 45 -253 23z"/>
<path d="M3010 3870 c-12 -12 -36 -53 -54 -93 -18 -40 -83 -181 -145 -314
l-113 -242 -190 -101 c-104 -55 -192 -100 -195 -100 -19 0 -310 241 -335 277
-55 81 -171 143 -267 143 -102 0 -217 -57 -273 -136 -17 -23 -90 -202 -173
-423 -79 -210 -145 -384 -147 -387 -6 -5 -136 43 -282 103 -135 55 -260 117
-386 191 -175 103 -267 79 -324 -84 -70 -199 -47 -438 61 -634 78 -142 215
-295 373 -415 73 -56 75 -56 120 -48 76 14 259 8 315 -9 84 -27 127 -48 192
-94 34 -24 65 -44 68 -44 4 0 21 12 38 26 44 37 154 90 228 110 35 9 106 18
158 19 l93 2 155 333 c85 183 153 334 151 335 -2 2 -41 8 -88 14 -139 18 -220
32 -220 39 0 8 191 516 196 521 2 2 47 -29 99 -70 150 -117 172 -129 227 -129
34 0 66 9 108 30 33 17 60 27 60 23 0 -3 -133 -294 -297 -646 -293 -631 -297
-639 -322 -632 -55 14 -222 17 -268 6 -70 -18 -142 -55 -203 -106 -87 -72
-144 -72 -233 -1 -67 54 -121 85 -177 102 -160 49 -323 13 -460 -100 -79 -66
-147 -73 -209 -20 -37 31 -92 54 -129 54 -49 0 -113 -41 -139 -90 -53 -101 -4
-199 136 -270 174 -88 387 -66 531 55 102 85 153 86 250 5 186 -156 427 -157
622 -4 102 80 152 82 240 10 102 -83 198 -118 323 -118 125 0 209 31 318 115
94 74 140 74 234 0 109 -84 195 -116 318 -115 125 0 210 31 319 115 94 74 139
74 233 0 109 -84 193 -115 318 -115 125 0 230 39 328 121 81 68 141 65 232
-10 92 -76 193 -112 315 -111 198 1 379 119 380 248 0 51 -40 115 -90 141 -24
13 -57 23 -74 23 -35 0 -97 -28 -139 -62 -22 -18 -41 -23 -82 -23 -45 0 -59 5
-92 32 -58 50 -147 100 -205 118 -66 20 -207 20 -269 1 -67 -21 -137 -59 -192
-105 -51 -42 -99 -58 -144 -46 -15 3 -59 31 -98 60 -86 66 -140 91 -233 106
-136 23 -262 -14 -381 -109 -97 -78 -157 -81 -237 -11 -93 80 -198 119 -324
119 -126 0 -231 -39 -324 -119 -26 -23 -62 -43 -82 -47 -44 -8 -104 9 -129 35
-17 20 -7 43 334 778 l352 758 86 45 c100 52 138 81 158 121 31 60 10 157 -42
199 l-24 19 125 271 c72 155 126 284 126 301 0 65 -85 104 -130 59z"/>
<path d="M4770 2843 c-8 -3 -66 -35 -129 -71 -522 -295 -1164 -468 -1864 -500
l-158 -7 -160 -344 c-87 -189 -157 -346 -155 -349 3 -2 26 3 53 12 200 66 434
28 594 -96 20 -15 40 -28 43 -28 3 0 27 16 53 36 108 83 236 124 383 124 146
0 276 -42 383 -123 26 -21 50 -37 53 -37 4 0 27 15 53 34 139 101 317 143 483
114 l76 -14 79 58 c155 115 299 276 376 418 108 198 131 435 61 633 -25 74
-51 110 -96 133 -27 14 -99 18 -128 7z"/>
</g>
</svg>
